<svg xmlns="http://www.w3.org/2000/svg"><symbol id="mechastilts" viewBox="0 0 216.5 250"><path d="M77 154.1h20.5v12.93H77zm24.7 0h13.1v12.93h-13.1zm17.2 0h20.5v12.93h-20.5zm-10.6-85.6c-24.1 0-44.2 14.6-45.2 41.1h90.3c-1-26.5-21.1-41.1-45.1-41.1zm-48.5 85.6h13.1v12.93H59.8zM47.5 150H169v-36.3H47.5zm59.7-13.9h50.1a2.1 2.1 0 1 1 0 4.1h-50.1a2.1 2.1 0 0 1 0-4.1z"/><path d="M108.3 0L0 62.5v125L108.3 250l108.2-62.5v-125zm64.8 152.1a1.9 1.9 0 0 1-2 2h-10.3v13h10.3a2.1 2.1 0 0 1 0 4.1H45.4a2.1 2.1 0 0 1 0-4.1h10.3v-13H45.4a1.9 1.9 0 0 1-2-2v-40.4a1.9 1.9 0 0 1 2-2.1H59c1-29.2 22.8-45.2 49.3-45.2s48.2 16 49.2 45.2h13.6a1.9 1.9 0 0 1 2 2.1z"/><path d="M143.6 154.1h13.1v12.93h-13.1z"/></symbol><symbol id="superdomes" viewBox="0 0 216.5 250"><path d="M51 144.3h55.2v22.79H51zm55.2-19.5V83.3l-29.6 41.5h29.6zm4.1-45.8v45.8H167A61 61 0 0 0 110.3 79zm0 65.3h9.2v22.79h-9.2zm-6.2-65.1c-26.2 1.7-48.2 20.7-54.6 45.6h22z"/><path d="M108.3 0L0 62.5v125L108.3 250l108.2-62.5v-125zm88.4 144.3h-27.1v24.8a1.9 1.9 0 0 1-2 2.1H48.9a1.9 1.9 0 0 1-2-2.1v-24.8H19.8a2.1 2.1 0 1 1 0-4.1h15.4v-13.4a1.9 1.9 0 0 1 2-2h8A65.2 65.2 0 0 1 108 74.9a.7.7 0 0 1 .9 0c30.3.2 55.6 21.6 62.4 49.9h8a1.9 1.9 0 0 1 2 2v13.4h15.4a2.1 2.1 0 1 1 0 4.1z"/><path d="M39.3 128.9h138v11.29h-138zm84.3 15.4h41.9v22.79h-41.9z"/></symbol><symbol id="spacebubbles" viewBox="0 0 216.5 250"><path d="M78.3 146.3H64.7l-18 21.4 2.8 4.1 34.7-18.3-5.9-7.2zm-25.1-14.7h112.3v10.67H53.2zm98.2-4.1a51.3 51.3 0 0 0 2.4-15.6 44.5 44.5 0 0 0-88.9 0c0 5.3.4 10.8 2.5 15.6zm-83.8 39.6h27.9l-8.4-10.3-19.5 10.3zm70.6-20.8l-6.1 7.2 34.9 18.3 2.8-3.9-18-21.6h-13.6z"/><path d="M108.3 0L0 62.5v125L108.3 250l108.2-62.5v-125zm65.6 168.9l-4.7 6.8a2.1 2.1 0 0 1-2.6.6l-9.9-5.1H59.6l-9.9 5.1a2.2 2.2 0 0 1-2.6-.6l-4.7-6.8a1.8 1.8 0 0 1 .2-2.4l17-20.2h-8.4a1.9 1.9 0 0 1-2.1-2v-14.8a1.9 1.9 0 0 1 2.1-2h11.9a55.6 55.6 0 0 1-2.3-15.6 48.8 48.8 0 0 1 48.7-48.5c26.5 0 48.4 22 48.4 48.5a52.1 52.1 0 0 1-2.2 15.6h11.9a1.9 1.9 0 0 1 2 2v14.8a1.9 1.9 0 0 1-2 2h-10.5l16.8 20.2a1.8 1.8 0 0 1 0 2.4z"/><path d="M121 167.1h27.9l-19.5-10.3-8.4 10.3zm-37.4-20.8l17.3 20.8h14.7l17.3-20.8H83.6z"/></symbol></svg>